<?xml version="1.0" standalone="no"?>
<!DOCTYPE svg PUBLIC "-//W3C//DTD SVG 20010904//EN"
 "http://www.w3.org/TR/2001/REC-SVG-20010904/DTD/svg10.dtd">
<svg version="1.0" xmlns="http://www.w3.org/2000/svg"
 width="700.000000pt" height="700.000000pt" viewBox="0 0 700.000000 700.000000"
 preserveAspectRatio="xMidYMid meet">
<metadata>
Created by potrace 1.11, written by Peter Selinger 2001-2013
</metadata>
<g transform="translate(0.000000,700.000000) scale(0.100000,-0.100000)"
fill="#000000" stroke="none">
<path d="M2443 6989 c-178 -23 -381 -126 -516 -262 -91 -93 -742 -961 -754
-1007 -12 -43 1 -97 30 -128 11 -12 109 -70 216 -129 108 -58 216 -117 241
-131 25 -13 74 -40 110 -60 36 -19 83 -45 105 -57 22 -12 69 -38 105 -58 36
-19 85 -46 110 -59 436 -241 781 -423 811 -428 61 -11 105 16 171 108 44 59
359 499 418 582 105 148 191 265 197 267 5 1 25 -23 45 -55 20 -31 71 -106
113 -167 123 -176 168 -245 164 -248 -2 -2 -106 -53 -231 -115 -249 -124 -268
-138 -275 -221 -4 -36 0 -53 19 -80 33 -49 70 -67 173 -85 102 -18 129 -23
200 -36 28 -5 66 -12 85 -16 19 -3 71 -12 115 -20 44 -8 118 -21 165 -30 47
-8 94 -16 105 -19 75 -14 417 -76 445 -80 19 -3 51 -10 70 -15 19 -4 53 -11
75 -14 22 -3 52 -8 68 -11 62 -12 84 -16 117 -21 19 -3 49 -9 65 -13 58 -15
131 9 159 52 8 12 29 56 46 97 17 41 37 89 45 105 7 17 52 125 100 240 47 116
93 225 101 243 22 49 45 105 54 127 14 35 61 149 70 170 5 11 84 200 176 420
184 441 188 457 139 521 -31 41 -47 50 -102 58 -40 5 -61 -4 -294 -120 -138
-69 -253 -124 -254 -122 -5 5 -278 418 -317 478 -108 170 -257 277 -462 331
-64 17 -134 18 -1120 16 -578 -1 -1074 -4 -1103 -8z"/>
<path d="M78 4939 c-40 -21 -78 -81 -77 -121 1 -59 31 -95 287 -352 l264 -264
-260 -519 c-280 -560 -295 -599 -291 -737 6 -168 55 -285 178 -422 25 -28 86
-109 134 -180 49 -71 118 -172 154 -224 36 -52 89 -129 118 -170 28 -41 122
-176 207 -300 367 -532 467 -673 522 -735 149 -169 387 -293 616 -323 30 -3
243 -7 472 -7 405 0 417 1 444 21 15 11 37 33 48 48 21 27 21 35 22 941 1
1011 5 950 -64 1003 l-35 26 -408 1 c-225 1 -410 3 -413 5 -2 3 54 123 126
267 l131 262 240 -121 c161 -80 252 -120 274 -120 73 0 142 62 148 133 3 29
-13 83 -47 159 -20 45 -55 128 -111 265 -25 61 -71 171 -103 245 -31 74 -71
172 -90 218 -19 46 -42 102 -53 125 -10 23 -30 71 -44 107 -15 36 -89 215
-166 398 -140 335 -154 360 -212 381 -16 5 -410 9 -1000 9 -943 0 -975 0
-1011 -19z"/>
<path d="M6019 4482 c-66 -35 -149 -81 -374 -207 -48 -26 -188 -104 -285 -157
-25 -14 -101 -56 -170 -95 -69 -38 -156 -87 -195 -108 -38 -20 -83 -45 -100
-55 -16 -10 -57 -33 -90 -52 -84 -46 -100 -58 -119 -95 -39 -76 -38 -77 247
-532 144 -231 279 -446 299 -478 20 -32 37 -62 37 -68 1 -8 -472 -13 -584 -6
-19 1 -20 8 -18 230 1 211 -1 233 -19 270 -14 28 -32 46 -62 60 -88 43 -134
21 -229 -108 -38 -53 -87 -118 -107 -146 -64 -87 -304 -416 -335 -461 -35 -50
-446 -614 -458 -629 -4 -5 -42 -57 -84 -115 -142 -194 -163 -229 -163 -265 0
-61 4 -67 187 -271 35 -40 72 -81 81 -91 28 -32 135 -153 157 -177 11 -13 38
-43 59 -67 22 -24 58 -64 80 -89 23 -25 68 -76 101 -114 33 -37 69 -78 80 -90
11 -12 47 -53 80 -91 33 -37 65 -73 70 -79 6 -6 46 -51 90 -101 78 -88 104
-117 199 -221 57 -63 91 -79 150 -70 56 9 111 60 119 108 2 18 4 129 4 246 0
117 3 215 6 218 3 3 92 7 199 9 106 2 207 6 223 10 97 20 126 28 180 47 189
66 363 194 484 358 31 42 162 230 291 418 129 188 276 402 327 475 98 141 109
156 294 426 66 95 144 200 173 233 142 157 192 396 124 593 -14 39 -140 276
-283 530 -142 253 -272 485 -288 515 -100 181 -165 286 -188 303 -15 10 -46
21 -70 24 -37 4 -56 -1 -120 -35z"/>
</g>
</svg>
